HIERARCHY
ROOT Hips
{
	OFFSET 39.935200 -4.020926 98.816299
	CHANNELS 6 Xposition Yposition Zposition Xrotation Yrotation Zrotation
	JOINT spine
	{
		OFFSET 0.000000 -0.477353 8.301033
		CHANNELS 3 Xrotation Yrotation Zrotation
		JOINT spine1
		{
			OFFSET 0.000000 -0.000001 10.456497
			CHANNELS 3 Xrotation Yrotation Zrotation
			JOINT spine2
			{
				OFFSET 0.000000 -0.000002 10.019203
				CHANNELS 3 Xrotation Yrotation Zrotation
				JOINT Neck
				{
					OFFSET 0.000000 -1.226414 25.723495
					CHANNELS 3 Xrotation Yrotation Zrotation
					JOINT Head
					{
						OFFSET 0.000000 -0.000001 7.771744
						CHANNELS 3 Xrotation Yrotation Zrotation
						End Site
						{
							OFFSET 0.000000 6.203937 18.811996
						}
					}
				}
				JOINT RightShoulder
				{
					OFFSET -4.218800 0.587437 10.819992
					CHANNELS 3 Xrotation Yrotation Zrotation
					JOINT RightArm
					{
						OFFSET 0.000000 -0.000002 14.191406
						CHANNELS 3 Xrotation Yrotation Zrotation
						JOINT RightArmRoll
						{
							OFFSET 0.000000 -0.000001 7.164078
							CHANNELS 3 Xrotation Yrotation Zrotation
							JOINT RightForeArm
							{
								OFFSET 0.000000 -0.000003 20.866501
								CHANNELS 3 Xrotation Yrotation Zrotation
								JOINT RightForeArmRoll
								{
									OFFSET 0.000000 -0.000001 8.039215
									CHANNELS 3 Xrotation Yrotation Zrotation
									JOINT RightHand
									{
										OFFSET 0.000000 -0.000003 16.132996
										CHANNELS 3 Xrotation Yrotation Zrotation
										End Site
										{
											OFFSET 0.000000 0.000000 0.100006
										}
									}
								}
							}
						}
					}
				}
				JOINT LeftShoulder
				{
					OFFSET 4.218800 0.587437 10.819992
					CHANNELS 3 Xrotation Yrotation Zrotation
					JOINT LeftArm
					{
						OFFSET 0.000000 -0.000002 14.191406
						CHANNELS 3 Xrotation Yrotation Zrotation
						JOINT LeftArmRoll
						{
							OFFSET 0.000000 -0.000001 7.164078
							CHANNELS 3 Xrotation Yrotation Zrotation
							JOINT LeftForeArm
							{
								OFFSET 0.000000 -0.000003 20.866501
								CHANNELS 3 Xrotation Yrotation Zrotation
								JOINT LeftForeArmRoll
								{
									OFFSET 0.000000 -0.000001 8.039215
									CHANNELS 3 Xrotation Yrotation Zrotation
									JOINT LeftHand
									{
										OFFSET 0.000000 -0.000003 16.132996
										CHANNELS 3 Xrotation Yrotation Zrotation
										End Site
										{
											OFFSET 0.000000 0.000000 0.100006
										}
									}
								}
							}
						}
					}
				}
			}
		}
	}
	JOINT RightUpLeg
	{
		OFFSET -7.357731 1.131810 -1.349213
		CHANNELS 3 Xrotation Yrotation Zrotation
		JOINT RightUpLegRoll
		{
			OFFSET 0.000000 -0.000003 18.916801
			CHANNELS 3 Xrotation Yrotation Zrotation
			JOINT RightLeg
			{
				OFFSET 0.000000 0.000004 -23.425598
				CHANNELS 3 Xrotation Yrotation Zrotation
				JOINT RightLegRoll
				{
					OFFSET 0.000000 -0.000004 23.502296
					CHANNELS 3 Xrotation Yrotation Zrotation
					JOINT RightFoot
					{
						OFFSET 0.000000 -0.000003 19.561707
						CHANNELS 3 Xrotation Yrotation Zrotation
						JOINT RightToeBase
						{
							OFFSET 0.000000 -0.000003 16.352600
							CHANNELS 3 Xrotation Yrotation Zrotation
							End Site
							{
								OFFSET 0.006931 0.912836 7.919434
							}
						}
					}
				}
			}
		}
	}
	JOINT LeftUpLeg
	{
		OFFSET 7.357731 1.131810 -1.349213
		CHANNELS 3 Xrotation Yrotation Zrotation
		JOINT LeftUpLegRoll
		{
			OFFSET 0.000000 -0.000003 18.916901
			CHANNELS 3 Xrotation Yrotation Zrotation
			JOINT LeftLeg
			{
				OFFSET 0.000000 -0.000004 23.425507
				CHANNELS 3 Xrotation Yrotation Zrotation
				JOINT LeftLegRoll
				{
					OFFSET 0.000000 -0.000004 23.719498
					CHANNELS 3 Xrotation Yrotation Zrotation
					JOINT LeftFoot
					{
						OFFSET 0.000000 -0.000003 19.344406
						CHANNELS 3 Xrotation Yrotation Zrotation
						JOINT LeftToeBase
						{
							OFFSET 0.000000 -0.000003 16.352600
							CHANNELS 3 Xrotation Yrotation Zrotation
							End Site
							{
								OFFSET -0.031063 0.912835 7.919434
							}
						}
					}
				}
			}
		}
	}
}
MOTION
Frames: 7
Frame Time: 0.041667
39.723801 -5.055984 98.835999 -3.048293 -1.498338 1.578608 -2.380268 0.015327 0.122989 -0.758504 0.026964 0.246215 0.886563 0.029845 0.245842 45.576063 3.022240 -2.545842 -27.359202 -2.924250 -2.143821 -13.011858 -26.308328 -13.750838 -126.642335 -186.458837 -85.127871 -0.000003 0.000000 -0.000004 77.114256 9.635103 6.868391 0.000002 0.000007 -3.004013 -5.000207 -7.999030 0.000127 -11.621108 34.261479 12.300319 -128.710585 183.156031 82.446708 0.000002 0.000002 0.000001 63.315184 -5.387065 -2.190351 -0.000004 -0.000007 3.006267 -5.000219 7.998741 -0.000171 1.916906 -174.774910 2.184754 -179.999991 0.000006 -1.100994 174.300704 -4.151447 -0.648943 -0.000008 0.000001 0.055001 68.849523 6.875399 2.179511 25.456960 -7.355615 -0.000001 2.258436 176.392805 0.963035 -0.000005 -0.000005 -1.170050 -8.092753 3.434458 0.888415 0.000005 -0.000003 -0.097696 68.160206 -6.931201 -2.087810 25.456957 7.355614 0.000001 
39.722099 -5.056376 98.830597 -3.056516 -1.498336 1.572732 -2.379208 0.016286 0.123315 -0.757432 0.028951 0.247828 0.887634 0.031854 0.247426 45.619387 2.931754 -2.519106 -27.407874 -2.839478 -2.127833 -13.004698 -26.331035 -13.741883 -126.505554 -186.636681 -85.104410 -0.000003 0.000002 -0.000004 77.228143 9.631176 6.875330 0.000001 0.000006 -3.004006 -5.000203 -7.999032 0.000125 -11.568422 34.270088 12.228284 -128.673456 183.230657 82.450567 0.000001 0.000003 -0.000002 63.530185 -5.343584 -2.212228 -0.000004 -0.000004 3.006258 -5.000219 7.998743 -0.000169 1.912678 -174.774897 2.186609 -179.999991 0.000005 -1.102005 174.282495 -4.152308 -0.649363 -0.000008 0.000001 0.055032 68.853429 6.875425 2.179574 25.456962 -7.355615 0.000000 2.265883 176.391807 0.957377 -0.000005 -0.000005 -1.170350 -8.093626 3.438014 0.888675 0.000005 -0.000003 -0.097660 68.152836 -6.931135 -2.088160 25.456957 7.355616 0.000001 
39.714600 -5.063990 98.830093 -3.064586 -1.498255 1.567525 -2.378196 0.017470 0.123620 -0.756666 0.031359 0.249591 0.888400 0.034286 0.249154 45.673772 2.831503 -2.492498 -27.469759 -2.744312 -2.112874 -12.997308 -26.357613 -13.732774 -126.363650 -186.805209 -85.093516 -0.000003 0.000001 -0.000004 77.319032 9.626822 6.876789 -0.000001 0.000007 -3.004011 -5.000201 -7.999029 0.000129 -11.513794 34.278257 12.153537 -128.639878 183.300216 82.460812 0.000000 0.000003 -0.000002 63.743020 -5.299561 -2.232464 -0.000001 -0.000006 3.006261 -5.000218 7.998743 -0.000172 1.909529 -174.773899 2.187995 -179.999991 0.000006 -1.102005 174.266580 -4.152193 -0.650516 -0.000007 0.000000 0.055064 68.856599 6.875439 2.179678 25.456959 -7.355617 -0.000000 2.271366 176.390824 0.952712 -0.000005 -0.000005 -1.170640 -8.097051 3.440391 0.889051 0.000005 -0.000003 -0.097634 68.147352 -6.931109 -2.088499 25.456962 7.355613 0.000000 
39.718601 -5.060085 98.828590 -3.072491 -1.498065 1.562918 -2.377211 0.018847 0.123898 -0.756147 0.034125 0.251461 0.888920 0.037079 0.250984 45.737358 2.723178 -2.465932 -27.542734 -2.640717 -2.098722 -12.989508 -26.387568 -13.723405 -126.218044 -186.963957 -85.094110 -0.000003 0.000000 -0.000002 77.389267 9.622180 6.873388 -0.000001 0.000006 -3.004009 -5.000203 -7.999033 0.000128 -11.457720 34.286341 12.076814 -128.609580 183.364624 82.477355 0.000001 0.000003 0.000001 63.953506 -5.255142 -2.251204 -0.000002 -0.000005 3.006263 -5.000217 7.998743 -0.000175 1.907336 -174.774883 2.188862 -179.999991 0.000006 -1.102005 174.252729 -4.153098 -0.651620 -0.000008 0.000000 0.055096 68.859242 6.875457 2.179617 25.456960 -7.355616 -0.000000 2.275053 176.389840 0.948911 -0.000005 -0.000004 -1.170929 -8.102783 3.441739 0.889535 0.000005 -0.000003 -0.097616 68.143547 -6.931066 -2.088631 25.456959 7.355613 0.000000 
39.720402 -5.060027 98.828583 -3.080214 -1.497745 1.558823 -2.376252 0.020385 0.124151 -0.755816 0.037187 0.253396 0.889250 0.040170 0.252874 45.808334 2.608467 -2.439343 -27.624739 -2.530654 -2.085178 -12.981521 -26.420698 -13.713873 -126.069910 -187.112554 -85.104232 -0.000002 0.000001 -0.000004 77.441498 9.617044 6.865872 -0.000001 0.000008 -3.004011 -5.000203 -7.999031 0.000131 -11.400737 34.294677 11.998871 -128.582368 183.423856 82.499157 0.000003 0.000000 -0.000000 64.161185 -5.210443 -2.268687 -0.000003 -0.000005 3.006262 -5.000218 7.998744 -0.000171 1.905996 -174.775880 2.189298 -179.999991 0.000005 -1.102005 174.240776 -4.153010 -0.652486 -0.000007 0.000001 0.055129 68.861154 6.875501 2.179707 25.456960 -7.355615 0.000000 2.277130 176.388843 0.945830 -0.000005 -0.000005 -1.171220 -8.110564 3.442196 0.890113 0.000005 -0.000003 -0.097605 68.141225 -6.931030 -2.088870 25.456960 7.355615 0.000000 
39.718601 -5.059416 98.834389 -3.087755 -1.497284 1.555180 -2.375308 0.022049 0.124374 -0.755619 0.040484 0.255354 0.889448 0.043496 0.254785 45.884627 2.489072 -2.412684 -27.713452 -2.416088 -2.072048 -12.973288 -26.456610 -13.704144 -125.920452 -187.250715 -85.122052 -0.000003 0.000003 -0.000006 77.477984 9.611669 6.854872 -0.000000 0.000008 -3.004009 -5.000203 -7.999032 0.000125 -11.343353 34.303430 11.920435 -128.558189 183.477910 82.526157 0.000001 0.000002 -0.000002 64.365872 -5.165729 -2.284901 -0.000003 -0.000007 3.006251 -5.000218 7.998743 -0.000170 1.905404 -174.776864 2.189341 -179.999991 0.000005 -1.102005 174.230490 -4.151930 -0.653129 -0.000008 0.000000 0.055163 68.862637 6.875520 2.179719 25.456957 -7.355616 0.000000 2.277789 176.386849 0.943289 -0.000005 -0.000004 -1.171510 -8.120135 3.441907 0.890779 0.000006 -0.000003 -0.097602 68.140173 -6.931020 -2.088932 25.456957 7.355615 0.000000 
39.716301 -5.052155 98.830299 -3.095117 -1.496665 1.551901 -2.374390 0.023808 0.124563 -0.755494 0.043954 0.257293 0.889573 0.046995 0.256674 45.964625 2.366678 -2.385948 -27.806718 -2.298970 -2.059169 -12.964654 -26.494924 -13.694131 -125.771281 -187.378126 -85.146415 -0.000003 0.000003 -0.000004 77.501310 9.605971 6.841057 0.000000 0.000007 -3.004011 -5.000205 -7.999032 0.000128 -11.286088 34.313132 11.842275 -128.536551 183.526719 82.557323 0.000002 0.000002 -0.000002 64.567090 -5.121114 -2.300171 -0.000005 -0.000007 3.006249 -5.000220 7.998741 -0.000173 1.905446 -174.778885 2.188998 -179.999991 0.000005 -1.102005 174.221747 -4.151866 -0.653762 -0.000008 0.000001 0.055197 68.863593 6.875543 2.179763 25.456957 -7.355616 -0.000000 2.277188 176.385851 0.941228 -0.000005 -0.000004 -1.171800 -8.131260 3.441020 0.891522 0.000004 -0.000003 -0.097604 68.140262 -6.930993 -2.088921 25.456959 7.355616 0.000001 
